<svg width="144" height="151" viewBox="0 0 144 151" fill="none" xmlns="http://www.w3.org/2000/svg">
<path fill-rule="evenodd" clip-rule="evenodd" d="M114.697 121.01C120.514 115.942 119.147 107.044 112.955 102.441C106.762 97.8385 98.0742 99.4404 91.5148 103.504C88.9399 105.099 86.1644 106.381 83.2446 107.311C75.8481 109.666 67.8987 109.64 60.5182 107.235C53.1378 104.83 46.6988 100.168 42.1101 93.9067C37.5213 87.6458 35.0145 80.1019 34.9433 72.3398C34.8721 64.5777 37.2402 56.9891 41.7134 50.6451C46.1865 44.301 52.5389 39.5218 59.874 36.9818C67.2092 34.4419 75.1567 34.2694 82.5952 36.4887C85.5315 37.3648 88.33 38.5962 90.9338 40.1437C97.5666 44.086 106.282 45.5284 112.39 40.8126C118.497 36.0969 119.7 27.1757 113.791 22.2149C107.027 16.5377 99.1392 12.2658 90.584 9.71328C77.537 5.82054 63.5969 6.12308 50.7311 10.5782C37.8652 15.0333 26.7232 23.4161 18.8773 34.5435C11.0314 45.671 6.87782 58.9812 7.00267 72.596C7.04673 77.4009 7.6229 82.1582 8.70389 86.7856C8.89273 87.594 8.99994 88.42 8.99994 89.2501V141C8.99994 146.523 13.4771 151 18.9999 151H31.7396C36.3017 151 39.9999 147.302 39.9999 142.74V141.56C39.9999 135.76 46.3472 132.005 51.8611 133.801C64.8064 138.02 78.7497 138.067 91.7231 133.935C100.23 131.226 108.038 126.811 114.697 121.01Z" fill="#6875F5"/>
<circle cx="72" cy="72" r="65" transform="rotate(-96.3626 72 72)" fill="url(#paint0_linear_104_265)"/>
<circle cx="71.9999" cy="72" r="33" fill="#FFFEFF"/>
<path fill-rule="evenodd" clip-rule="evenodd" d="M114.697 121.01C120.514 115.942 119.147 107.044 112.955 102.441C106.762 97.8385 98.0742 99.4404 91.5148 103.504C88.9399 105.099 86.1644 106.381 83.2446 107.311C75.8481 109.666 67.8987 109.64 60.5182 107.235C53.1378 104.83 46.6988 100.168 42.1101 93.9067C37.5213 87.6458 35.0145 80.1019 34.9433 72.3398C34.8721 64.5777 37.2402 56.9891 41.7134 50.6451C46.1865 44.301 52.5389 39.5218 59.874 36.9818C67.2092 34.4419 75.1567 34.2694 82.5952 36.4887C85.5315 37.3648 88.33 38.5962 90.9338 40.1437C97.5666 44.086 106.282 45.5284 112.39 40.8126C118.497 36.0969 119.7 27.1757 113.791 22.2149C107.027 16.5377 99.1392 12.2658 90.584 9.71327C77.537 5.82053 63.5969 6.12307 50.7311 10.5782C37.8653 15.0333 26.7232 23.4161 18.8773 34.5435C11.0314 45.671 6.87783 58.9812 7.00267 72.596C7.04674 77.4009 7.6229 82.1582 8.70389 86.7856C8.89273 87.594 8.99994 88.42 8.99994 89.2501V141C8.99994 146.523 13.4771 151 18.9999 151H31.7396C36.3017 151 39.9999 147.302 39.9999 142.74V141.56C39.9999 135.76 46.3472 132.005 51.8611 133.801C64.8064 138.02 78.7497 138.067 91.7231 133.935C100.23 131.226 108.038 126.811 114.697 121.01Z" fill="url(#paint1_linear_104_265)"/>
<defs>
<linearGradient id="paint0_linear_104_265" x1="72" y1="7" x2="72" y2="137" gradientUnits="userSpaceOnUse">
<stop offset="0.258333" stop-color="#FFC6E5"/>
<stop offset="1" stop-color="#FF80C5"/>
</linearGradient>
<linearGradient id="paint1_linear_104_265" x1="62.7021" y1="6.99998" x2="62.7021" y2="151" gradientUnits="userSpaceOnUse">
<stop stop-color="#6875F5"/>
<stop offset="1" stop-color="#6875F5" stop-opacity="0.34"/>
</linearGradient>
</defs>
</svg>
